<?xml version="1.0" standalone="no"?>
<!DOCTYPE svg PUBLIC "-//W3C//DTD SVG 20010904//EN"
 "http://www.w3.org/TR/2001/REC-SVG-20010904/DTD/svg10.dtd">
<svg version="1.0" xmlns="http://www.w3.org/2000/svg"
 width="700.000000pt" height="700.000000pt" viewBox="0 0 700.000000 700.000000"
 preserveAspectRatio="xMidYMid meet">
<metadata>
Created by potrace 1.14, written by Peter Selinger 2001-2017
</metadata>
<g transform="translate(0.000000,700.000000) scale(0.100000,-0.100000)"
fill="#000000" stroke="none">
<path d="M6446 6689 c-15 -12 -790 -784 -1722 -1716 -1735 -1736 -1702 -1701
-1695 -1763 4 -30 59 -70 99 -70 36 0 85 48 1740 1703 937 936 1710 1714 1717
1728 20 37 10 79 -25 109 -38 33 -80 36 -114 9z"/>
<path d="M4943 5740 c-15 -10 -673 -663 -1460 -1452 -1390 -1390 -1433 -1434
-1433 -1470 0 -27 8 -46 28 -68 32 -35 68 -43 108 -24 16 8 676 662 1467 1452
l1437 1438 0 43 c0 79 -80 123 -147 81z"/>
<path d="M5607 4756 c-15 -6 -554 -537 -1197 -1180 -852 -853 -1171 -1178
-1176 -1199 -18 -83 82 -150 147 -98 54 42 2349 2345 2350 2357 1 8 2 20 3 27
4 24 -17 68 -39 83 -32 21 -56 24 -88 10z"/>
<path d="M4660 4373 c-14 -9 -503 -495 -1087 -1079 -1024 -1023 -1063 -1063
-1063 -1099 0 -47 13 -71 50 -90 67 -35 8 -89 1158 1059 634 633 1075 1081
1079 1096 11 38 10 43 -3 71 -27 54 -88 74 -134 42z"/>
<path d="M1603 2661 c-36 -23 -28 -2 -158 -406 -59 -181 -113 -348 -120 -370
l-13 -40 -426 -5 -426 -5 -24 -25 c-14 -14 -27 -36 -29 -50 -9 -60 4 -72 353
-326 l337 -245 -22 -72 c-12 -40 -55 -171 -94 -292 -40 -121 -86 -263 -103
-315 -17 -52 -31 -110 -31 -128 0 -68 84 -113 141 -76 52 34 287 202 459 330
115 85 199 144 205 144 5 0 157 -108 339 -241 183 -132 343 -243 357 -245 54
-10 112 37 112 89 0 14 -11 58 -24 98 -13 41 -70 215 -126 386 -55 172 -99
317 -96 322 3 4 150 113 326 241 176 128 329 244 340 258 35 44 21 111 -29
137 -26 13 -90 15 -444 15 l-413 0 -47 148 c-178 551 -209 640 -230 659 -33
30 -78 35 -114 14z"/>
</g>
</svg>
